<?xml version="1.0" encoding="iso-8859-1"?>
<!-- Generator: Adobe Illustrator 19.0.0, SVG Export Plug-In . SVG Version: 6.00 Build 0)  -->
<svg version="1.1" id="Capa_1" xmlns="http://www.w3.org/2000/svg" xmlns:xlink="http://www.w3.org/1999/xlink" x="0px" y="0px"
	 viewBox="0 0 512 512" style="enable-background:new 0 0 512 512;" xml:space="preserve">
<path style="fill:#F9EED7;" d="M512,255.791V256c0,8.923-0.46,17.742-1.348,26.436c-0.92,9.028-2.32,17.92-4.159,26.645
	c-7.941,37.637-24.137,72.223-46.623,101.772c-9.822,12.915-20.856,24.868-32.914,35.694c-4.723,4.242-9.603,8.307-14.628,12.183
	c-38.431,29.685-85.535,48.681-136.87,52.548c-4.838,0.355-9.717,0.585-14.628,0.669c-1.609,0.042-3.218,0.052-4.827,0.052
	c-7.878,0-15.684-0.355-23.385-1.055c-4.921-0.439-9.791-1.024-14.628-1.755C94.629,490.829,0.003,384.469,0.003,256
	c0-7.555,0.324-15.036,0.972-22.423c0.428-4.921,0.993-9.801,1.693-14.628c4.827-33.332,16.091-64.595,32.475-92.473
	C79.613,50.804,161.878,0.002,256.002,0.002c58.963,0,113.256,19.926,156.535,53.425c10.491,8.108,20.334,17.021,29.424,26.645
	c6.834,7.22,13.26,14.837,19.226,22.81c18.547,24.827,32.705,53.133,41.305,83.769c3.856,13.73,6.604,27.93,8.119,42.496
	C511.519,237.902,511.99,246.794,512,255.791z"/>
<g>
	<path style="fill:#FCF8F2;" d="M441.961,80.072h-72.275c-3.678,0-7.011-1.494-9.425-3.908c-2.403-2.403-3.897-5.736-3.897-9.414
		c0-7.366,5.966-13.322,13.322-13.322h42.851C423.027,61.535,432.87,70.448,441.961,80.072z"/>
	<path style="fill:#FCF8F2;" d="M502.492,186.651H385.223c-3.678,0-7.011-1.494-9.414-3.908c-2.414-2.403-3.908-5.736-3.908-9.414
		c0-7.356,5.966-13.322,13.322-13.322h40.5c3.678,0,7.011-1.494,9.414-3.908c2.414-2.403,3.908-5.736,3.908-9.414
		c0-7.356-5.966-13.322-13.322-13.322h-11.306c-3.678,0-7.011-1.494-9.414-3.908c-2.414-2.403-3.908-5.736-3.908-9.414
		c0-7.356,5.966-13.322,13.322-13.322h37.428c3.647,0,6.949-1.463,9.341-3.835C479.734,127.708,493.892,156.014,502.492,186.651z"/>
	<path style="fill:#FCF8F2;" d="M496.379,282.436h14.273c-0.92,9.028-2.32,17.92-4.159,26.645h-73.017
		c-3.678,0-7.011-1.494-9.414-3.897c-2.414-2.414-3.908-5.747-3.908-9.425c0-7.356-5.966-13.322-13.322-13.322h-63.665
		c-3.678,0-7.011-1.494-9.425-3.897c-2.403-2.414-3.897-5.747-3.897-9.425c0-7.356,5.966-13.322,13.322-13.322h42.935
		c3.678,0,7.011-1.494,9.414-3.897c2.414-2.414,3.908-5.747,3.908-9.425c0-7.366,5.966-13.322,13.322-13.322h97.865
		c0.909,8.756,1.379,17.648,1.39,26.645h-15.621c-7.356,0-13.322,5.966-13.322,13.322S489.023,282.436,496.379,282.436z"/>
</g>
<path style="fill:#B58657;" d="M323.67,11.381H42.124c-10.204,0-18.476,8.272-18.476,18.476v78.141
	c0,10.204,8.272,18.476,18.476,18.476H323.67c10.204,0,18.476-8.272,18.476-18.476V29.857
	C342.146,19.653,333.874,11.381,323.67,11.381z"/>
<g>
	<path style="fill:#E8DBC4;" d="M57.611,40.63c0-2.34,2.426-3.554,4.94-3.554h16.728c9.013,0,17.42,2.947,17.42,15.254
		c0,7.107-2.773,11.787-7.366,13.78c5.287,2.08,8.927,5.461,8.927,14.128v1.82c0,13.52-7.54,18.373-17.334,18.373H62.55
		c-3.033,0-4.94-1.647-4.94-3.467V40.63H57.611z M68.791,61.691h9.707c4.68,0,6.934-3.033,6.934-7.453c0-4.507-2.6-7.281-7.02-7.281
		h-9.621V61.691z M78.585,90.552c5.287,0,8.407-2.86,8.407-9.447v-1.387c0-6.76-3.12-9.187-8.407-9.187h-9.794v20.021h9.794V90.552z
		"/>
	<path style="fill:#E8DBC4;" d="M109.961,81.105V56.924c0-14.474,8.841-19.848,20.281-19.848c11.441,0,20.368,5.374,20.368,19.848
		v24.181c0,14.474-8.927,19.848-20.368,19.848C118.802,100.953,109.961,95.579,109.961,81.105z M139.344,56.924
		c0-6.847-3.467-9.967-9.1-9.967c-5.72,0-9.013,3.12-9.013,9.967v24.181c0,6.847,3.294,9.967,9.013,9.967
		c5.634,0,9.1-3.12,9.1-9.967V56.924z"/>
	<path style="fill:#E8DBC4;" d="M163.873,81.105V56.924c0-14.474,8.84-19.848,20.28-19.848c11.441,0,20.368,5.374,20.368,19.848
		v24.181c0,14.474-8.926,19.848-20.368,19.848C172.714,100.953,163.873,95.579,163.873,81.105z M193.255,56.924
		c0-6.847-3.467-9.967-9.1-9.967c-5.721,0-9.013,3.12-9.013,9.967v24.181c0,6.847,3.293,9.967,9.013,9.967
		c5.634,0,9.1-3.12,9.1-9.967V56.924z"/>
	<path style="fill:#E8DBC4;" d="M218.477,40.543c0-2.426,2.773-3.467,5.634-3.467c2.773,0,5.634,1.041,5.634,3.467v23.662
		l18.721-25.481c0.867-1.213,1.907-1.647,3.12-1.647c2.86,0,6.5,2.947,6.5,5.808c0,0.607-0.087,1.387-0.694,2.167L241.88,64.466
		l18.895,28.774c0.434,0.607,0.607,1.301,0.607,1.994c0,2.773-3.467,5.634-6.76,5.634c-1.473,0-2.947-0.607-3.9-2.166
		l-16.294-24.701l-4.68,5.894v16.987c0,2.341-2.86,3.554-5.634,3.554c-2.86,0-5.634-1.213-5.634-3.554V40.543H218.477z"/>
	<path style="fill:#E8DBC4;" d="M296.916,83.531c0-13.001-27.821-9.013-27.821-29.555c0-12.914,11.094-17.334,21.061-17.334
		c5.114,0,16.467,1.213,16.467,6.934c0,1.994-1.387,5.98-4.507,5.98c-2.686,0-4.68-3.293-11.961-3.293
		c-6.24,0-9.794,2.514-9.794,6.674c0,10.747,27.821,7.02,27.821,29.468c0,12.393-8.666,18.808-20.627,18.808
		c-11.354,0-20.021-5.721-20.021-10.748c0-2.426,2.254-6.067,4.94-6.067c3.554,0,5.893,6.674,14.734,6.674
		C292.409,91.072,296.916,88.732,296.916,83.531z"/>
</g>
<path style="fill:#F4A14E;" d="M459.87,126.475v284.378c-9.822,12.915-20.856,24.868-32.914,35.694
	c-4.723,4.242-9.603,8.307-14.628,12.183c-38.431,29.685-85.535,48.681-136.87,52.548c-4.838,0.355-9.717,0.585-14.628,0.669
	c-1.609,0.042-3.218,0.052-4.827,0.052c-7.878,0-15.684-0.355-23.385-1.055c-4.921-0.439-9.791-1.024-14.628-1.755
	C94.629,490.829,0.003,384.469,0.003,256V126.475L459.87,126.475L459.87,126.475z"/>
<rect y="126.473" style="fill:#E28D40;" width="459.867" height="65.825"/>
<path style="fill:#C69A6A;" d="M475.917,176.627H0v-50.153h475.917c5.851,0,10.594,4.743,10.594,10.594v28.964
	C486.511,171.883,481.768,176.627,475.917,176.627z"/>
<path style="fill:#E28D40;" d="M426.956,218.948v227.598c-4.723,4.242-9.603,8.307-14.628,12.183
	c-38.431,29.685-85.535,48.681-136.87,52.548c-4.838,0.355-9.717,0.585-14.628,0.669V218.948L426.956,218.948L426.956,218.948z"/>
<path style="fill:#5C5E70;" d="M412.328,233.577V458.73c-38.431,29.685-85.535,48.681-136.87,52.548V233.577L412.328,233.577
	L412.328,233.577z"/>
<path style="fill:#E28D40;" d="M232.617,218.948v291.995c-4.921-0.439-9.791-1.024-14.628-1.755
	C94.629,490.829,0.003,384.469,0.003,256v-37.052L232.617,218.948L232.617,218.948z"/>
<path style="fill:#5C5E70;" d="M217.988,233.577v275.611c-8.861-1.317-17.586-3.093-26.122-5.298
	c-18.672-4.817-36.529-11.682-53.289-20.354c-4.033-2.079-8.004-4.274-11.901-6.562c-12.737-7.471-24.774-16.008-35.976-25.495
	c-3.051-2.581-6.039-5.235-8.965-7.952c-2.32-2.163-4.598-4.357-6.834-6.593c-2.706-2.717-5.36-5.486-7.931-8.317
	c-7.502-8.213-14.482-16.917-20.866-26.049c-2.926-4.169-5.726-8.443-8.39-12.789c-3.688-5.977-7.116-12.131-10.292-18.421
	c-1.86-3.657-3.626-7.377-5.308-11.139c-9.895-22.173-16.729-46.007-19.968-70.969c-0.031-0.261-0.073-0.512-0.094-0.773
	C0.693,277.838,0.003,267.003,0.003,256v-22.423L217.988,233.577L217.988,233.577z"/>
<rect x="138.574" y="259.686" style="fill:#C69A6A;" width="53.289" height="130.089"/>
<g>
	<rect x="138.574" y="278.108" style="fill:#797B89;" width="53.289" height="11.139"/>
	<rect x="138.584" y="360.215" style="fill:#797B89;" width="53.286" height="11.146"/>
</g>
<path style="fill:#F9EED7;" d="M55.33,259.688v130.089H37.713c-3.688-5.977-7.116-12.131-10.292-18.421
	c-1.86-3.657-3.626-7.377-5.308-11.139c-9.895-22.173-16.729-46.007-19.968-70.969H2.051v-29.56L55.33,259.688L55.33,259.688z"/>
<g>
	<rect x="2.051" y="278.108" style="fill:#FF525D;" width="53.279" height="11.139"/>
	<path style="fill:#FF525D;" d="M55.33,360.217v11.139H27.421c-1.86-3.657-3.626-7.377-5.308-11.139H55.33z"/>
</g>
<rect x="90.707" y="259.686" style="fill:#34ABE0;" width="35.977" height="130.079"/>
<g>
	<rect x="90.707" y="278.108" style="fill:#F4A14E;" width="35.977" height="11.146"/>
	<rect x="90.707" y="360.215" style="fill:#F4A14E;" width="35.977" height="11.146"/>
</g>
<rect x="66.967" y="259.686" style="fill:#FF525D;" width="14.764" height="130.079"/>
<g>
	<rect x="66.967" y="278.108" style="fill:#FFD15C;" width="14.764" height="11.146"/>
	<rect x="66.967" y="360.215" style="fill:#FFD15C;" width="14.764" height="11.146"/>
</g>
<path style="fill:#FF525D;" d="M191.866,418.512v85.378c-18.672-4.817-36.529-11.682-53.289-20.354v-65.024L191.866,418.512
	L191.866,418.512z"/>
<rect x="138.584" y="436.931" style="fill:#FFD15C;" width="53.286" height="11.146"/>
<path style="fill:#FF525D;" d="M126.675,418.512v58.462c-12.737-7.471-24.774-16.008-35.976-25.495v-32.966L126.675,418.512
	L126.675,418.512z"/>
<rect x="90.707" y="436.931" style="fill:#34ABE0;" width="35.977" height="11.146"/>
<path style="fill:#FF525D;" d="M81.735,418.512v25.015c-2.32-2.163-4.598-4.357-6.834-6.593c-2.706-2.717-5.36-5.486-7.931-8.317
	v-10.104H81.735z"/>
<g>
	<path style="fill:#FFD15C;" d="M81.735,436.933v6.593c-2.32-2.163-4.598-4.357-6.834-6.593H81.735z"/>
	<path style="fill:#FFD15C;" d="M217.988,389.777v12.789H46.104c-2.926-4.169-5.726-8.443-8.39-12.789H217.988z"/>
</g>
<path style="fill:#797B89;" d="M199.22,313.402h-19.485c-4.814,0-8.716-3.903-8.716-8.716v-52.922c0-4.814,3.903-8.716,8.716-8.716
	h19.485c4.814,0,8.716,3.903,8.716,8.716v52.922C207.937,309.499,204.034,313.402,199.22,313.402z"/>
<path style="fill:#D3AA81;" d="M191.866,259.688v53.718h-12.131c-4.817,0-8.714-3.908-8.714-8.725v-44.993H191.866L191.866,259.688z
	"/>
<path style="fill:#797B89;" d="M391.653,387.242h-7.816c-4.814,0-8.716-3.903-8.716-8.716V251.763c0-4.814,3.903-8.716,8.716-8.716
	h7.816c4.814,0,8.716,3.903,8.716,8.716v126.761C400.369,383.339,396.466,387.242,391.653,387.242z"/>
<path style="fill:#F4A14E;" d="M391.476,405.353h-95.167c-3.655,0-6.617-2.963-6.617-6.617l0,0c0-3.655,2.963-6.617,6.617-6.617
	h95.167c3.655,0,6.617,2.963,6.617,6.617l0,0C398.094,402.39,395.131,405.353,391.476,405.353z"/>
<rect x="171.017" y="278.108" style="fill:#8C8E99;" width="20.846" height="11.139"/>
<path style="fill:#D3AA81;" d="M451.396,137.164H340.638c-5.194,0-9.404,4.21-9.404,9.404l0,0c0,5.194,4.21,9.404,9.404,9.404
	h110.759c5.194,0,9.404-4.21,9.404-9.404l0,0C460.8,141.374,456.59,137.164,451.396,137.164z"/>
<g>
</g>
<g>
</g>
<g>
</g>
<g>
</g>
<g>
</g>
<g>
</g>
<g>
</g>
<g>
</g>
<g>
</g>
<g>
</g>
<g>
</g>
<g>
</g>
<g>
</g>
<g>
</g>
<g>
</g>
</svg>
