<svg width="20" height="20" viewBox="0 0 20 20" fill="none" xmlns="http://www.w3.org/2000/svg">
<path d="M6.55542 8.38542C7.01542 8.38542 7.38875 8.01208 7.38875 7.55208V4.30208C7.38875 2.84917 8.57084 1.66667 10.0242 1.66667C11.4771 1.66667 12.6596 2.84917 12.6596 4.30208V7.55208C12.6596 8.01208 13.0329 8.38542 13.4929 8.38542C13.9529 8.38542 14.3263 8.01208 14.3263 7.55208V4.30208C14.3263 1.93 12.3963 0 10.0242 0C7.6525 0 5.7225 1.93 5.7225 4.30208V7.55208C5.72209 8.01208 6.09542 8.38542 6.55542 8.38542Z" fill="white"/>
<path d="M19.5833 6.51292H15.1596V7.55209C15.1596 8.47125 14.4121 9.21875 13.4929 9.21875C12.5742 9.21875 11.8262 8.47125 11.8262 7.55209V6.51292H8.2225V7.55209C8.2225 8.47125 7.475 9.21875 6.55583 9.21875C5.63666 9.21875 4.88916 8.47125 4.88916 7.55209V6.51292H0.416665C0.186665 6.51292 0.0445812 6.69417 0.0991645 6.9175L3.01458 18.7917C3.19083 19.4592 3.89291 20 4.58333 20H15.4167C16.1075 20 16.8092 19.4587 16.9862 18.7917L19.9012 6.9175C19.9554 6.69375 19.8137 6.51292 19.5833 6.51292Z" fill="white"/>
</svg>
